{
	"asset":{
		"generator":"Khronos glTF Blender I/O v4.0.44",
		"version":"2.0"
	},
	"scene":0,
	"scenes":[
		{
			"name":"Scene",
			"nodes":[
				0,
				1,
				2,
				3
			]
		}
	],
	"nodes":[
		{
			"mesh":0,
			"name":"DepthObjectOutput"
		},
		{
			"mesh":1,
			"name":"DepthObjectOutput.001",
			"rotation":[
				0,
				1,
				0,
				0
			],
			"scale":[
				-1,
				-1,
				-1
			],
			"translation":[
				-2,
				0,
				0
			]
		},
		{
			"mesh":2,
			"name":"DepthObjectOutput.002"
		},
		{
			"mesh":3,
			"name":"DepthObjectOutput.003",
			"rotation":[
				0,
				1,
				0,
				0
			],
			"scale":[
				-1,
				-1,
				-1
			],
			"translation":[
				-2,
				0,
				0
			]
		}
	],
	"materials":[
		{
			"doubleSided":true,
			"name":"ColorMaterial.010",
			"pbrMetallicRoughness":{
				"baseColorFactor":[
					0.800000011920929,
					0.20000000298023224,
					0.20000000298023224,
					1
				],
				"metallicFactor":0,
				"roughnessFactor":0.4000000059604645
			}
		},
		{
			"doubleSided":true,
			"name":"ColorMaterial.011",
			"pbrMetallicRoughness":{
				"baseColorFactor":[
					0.800000011920929,
					0.20000000298023224,
					0.20000000298023224,
					1
				],
				"metallicFactor":0,
				"roughnessFactor":0.4000000059604645
			}
		}
	],
	"meshes":[
		{
			"name":"DepthMeshOutput.020",
			"primitives":[
				{
					"attributes":{
						"POSITION":0,
						"NORMAL":1
					},
					"indices":2,
					"material":0
				}
			]
		},
		{
			"name":"DepthMeshOutput.021",
			"primitives":[
				{
					"attributes":{
						"POSITION":3,
						"NORMAL":4
					},
					"indices":2,
					"material":0
				}
			]
		},
		{
			"name":"DepthMeshOutput.022",
			"primitives":[
				{
					"attributes":{
						"POSITION":5,
						"NORMAL":6
					},
					"indices":2,
					"material":1
				}
			]
		},
		{
			"name":"DepthMeshOutput.023",
			"primitives":[
				{
					"attributes":{
						"POSITION":7,
						"NORMAL":8
					},
					"indices":2,
					"material":1
				}
			]
		}
	],
	"accessors":[
		{
			"bufferView":0,
			"componentType":5126,
			"count":43749,
			"max":[
				172,
				25.5,
				-26
			],
			"min":[
				53,
				3.4000000953674316,
				-195
			],
			"type":"VEC3"
		},
		{
			"bufferView":1,
			"componentType":5126,
			"count":43749,
			"type":"VEC3"
		},
		{
			"bufferView":2,
			"componentType":5123,
			"count":76896,
			"type":"SCALAR"
		},
		{
			"bufferView":3,
			"componentType":5126,
			"count":43749,
			"max":[
				172,
				25.5,
				-26
			],
			"min":[
				53,
				3.4000000953674316,
				-195
			],
			"type":"VEC3"
		},
		{
			"bufferView":4,
			"componentType":5126,
			"count":43749,
			"type":"VEC3"
		},
		{
			"bufferView":5,
			"componentType":5126,
			"count":43749,
			"max":[
				172,
				25.5,
				-26
			],
			"min":[
				53,
				3.4000000953674316,
				-195
			],
			"type":"VEC3"
		},
		{
			"bufferView":6,
			"componentType":5126,
			"count":43749,
			"type":"VEC3"
		},
		{
			"bufferView":7,
			"componentType":5126,
			"count":43749,
			"max":[
				172,
				25.5,
				-26
			],
			"min":[
				53,
				3.4000000953674316,
				-195
			],
			"type":"VEC3"
		},
		{
			"bufferView":8,
			"componentType":5126,
			"count":43749,
			"type":"VEC3"
		}
	],
	"bufferViews":[
		{
			"buffer":0,
			"byteLength":524988,
			"byteOffset":0,
			"target":34962
		},
		{
			"buffer":0,
			"byteLength":524988,
			"byteOffset":524988,
			"target":34962
		},
		{
			"buffer":0,
			"byteLength":153792,
			"byteOffset":1049976,
			"target":34963
		},
		{
			"buffer":0,
			"byteLength":524988,
			"byteOffset":1203768,
			"target":34962
		},
		{
			"buffer":0,
			"byteLength":524988,
			"byteOffset":1728756,
			"target":34962
		},
		{
			"buffer":0,
			"byteLength":524988,
			"byteOffset":2253744,
			"target":34962
		},
		{
			"buffer":0,
			"byteLength":524988,
			"byteOffset":2778732,
			"target":34962
		},
		{
			"buffer":0,
			"byteLength":524988,
			"byteOffset":3303720,
			"target":34962
		},
		{
			"buffer":0,
			"byteLength":524988,
			"byteOffset":3828708,
			"target":34962
		}
	],
	"buffers":[
		{
			"byteLength":4353696,
			"uri":"output_model.bin"
		}
	]
}
